
<svg version="1.1" id="Capa_1" xmlns="http://www.w3.org/2000/svg" xmlns:xlink="http://www.w3.org/1999/xlink" x="0px" y="0px"
	 width="226px" height="59.335px" viewBox="0 0 226 59.335" enable-background="new 0 0 226 59.335" xml:space="preserve">
<g>
	<path fill="#1A1A1A" d="M40.911,25.575c0.224,0.137,0.447,0.206,0.672,0.206c0.373,0,0.666-0.126,0.88-0.379
		c0.214-0.252,0.319-0.587,0.319-1.005c0-0.417-0.119-0.752-0.359-1.005s-0.568-0.379-0.984-0.379c-0.618,0-1.119,0.28-1.504,0.84
		c-0.385,0.561-0.635,1.368-0.752,2.423c-0.565-0.901-1.268-1.563-2.104-1.986c-0.838-0.423-1.865-0.635-3.081-0.635
		c-1.845,0-3.397,0.5-4.655,1.5c-1.259,1-1.889,2.219-1.889,3.659c0,0.439,0.069,0.83,0.208,1.17
		c0.14,0.341,0.363,0.681,0.673,1.022c-0.828,0.504-1.453,0.994-1.893,1.471l-0.263-0.12c-0.513,1.187-1.011,2.085-1.495,2.695
		c-0.486,0.61-0.938,0.915-1.353,0.915c-0.14,0-0.245-0.052-0.319-0.156c-0.076-0.104-0.113-0.267-0.113-0.486
		c0-0.121,0.011-0.258,0.032-0.412c0.021-0.154,0.054-0.157,0.097-0.332l2.56-10.237h-3.632l-0.592,2.063
		c-0.129-0.824-0.483-1.542-1.064-1.993c-0.582-0.451-1.331-0.717-2.248-0.717c-1.846,0-3.558,0.884-5.137,2.691
		c-1.578,1.807-2.367,3.783-2.367,5.948c0,1.56,0.426,2.835,1.279,3.835s1.936,1.497,3.248,1.497c0.949,0,1.798-0.29,2.545-0.867
		c0.746-0.577,1.412-1.459,2-2.645c0,0.055-0.006,0.134-0.017,0.238c-0.011,0.105-0.017,0.178-0.017,0.222
		c0,0.912,0.217,1.618,0.648,2.118s1.037,0.75,1.816,0.75c0.961,0,1.854-0.412,2.68-1.236c0.273-0.271,0.531-0.587,0.779-0.938
		c0.051,0.427,0.181,0.814,0.392,1.161c0.277,0.457,0.72,0.876,1.328,1.261c-1.034,0.33-1.809,0.758-2.32,1.285
		c-0.513,0.527-0.769,1.154-0.769,1.879c0,1.109,0.526,1.989,1.576,2.637c1.051,0.648,2.483,0.973,4.297,0.973
		c2.603,0,4.749-0.648,6.439-1.945c1.691-1.297,2.536-2.862,2.536-4.697c0-1.164-0.31-2.002-0.927-2.513
		c-0.619-0.511-1.702-0.789-3.248-0.832l-3.921-0.132c-1.131-0.033-1.955-0.143-2.472-0.33c-0.518-0.187-0.776-0.472-0.776-0.857
		c0-0.285,0.114-0.561,0.345-0.824c0.229-0.264,0.563-0.517,0.999-0.759c0.618,0.396,1.256,0.688,1.913,0.874
		c0.655,0.187,1.361,0.28,2.119,0.28c1.856,0,3.359-0.44,4.513-1.319c1.151-0.879,1.855-2.131,2.111-3.757
		c0.021-0.165,0.06-0.412,0.112-0.742c0.148-1.055,0.373-1.582,0.672-1.582C40.526,25.369,40.686,25.437,40.911,25.575z
		 M20.299,30.27c-0.272,1.114-0.637,2.184-1.096,3.209c-0.449,0.994-0.966,1.771-1.553,2.334c-0.586,0.563-1.174,0.844-1.76,0.844
		c-0.395,0-0.707-0.133-0.936-0.397c-0.23-0.265-0.345-0.628-0.345-1.092c0-0.518,0.142-1.442,0.424-2.772
		c0.283-1.329,0.653-2.733,1.112-4.211c0.416-1.301,0.824-2.215,1.225-2.738c0.399-0.524,0.866-0.787,1.399-0.787
		c0.64,0,1.123,0.232,1.448,0.695s0.488,1.147,0.488,2.052C20.708,28.201,20.571,29.156,20.299,30.27z M28.301,37.914
		c0.588,0.153,1.398,0.134,2.432,0.134h0.033l2.752,0.244c0.192,0,0.459,0.095,0.8,0.105c1.845,0.034,2.769,0.534,2.769,1.413
		c0,0.944-0.667,1.827-2,2.601c-1.334,0.774-2.896,1.173-4.688,1.173c-1.185,0-2.117-0.252-2.8-0.769
		c-0.684-0.516-1.024-1.211-1.024-2.09c0-0.572,0.151-1.179,0.456-1.646C27.333,38.613,27.758,38.166,28.301,37.914z M35.35,28.046
		c-0.219,1.061-0.461,1.915-0.729,2.563c-0.182,0.484-0.395,0.816-0.64,0.997c-0.245,0.182-0.598,0.272-1.056,0.272
		c-0.491,0-0.864-0.096-1.12-0.288c-0.256-0.193-0.384-0.475-0.384-0.849c0-0.517,0.128-1.368,0.384-2.555
		C32.062,27,32.323,26.104,32.59,25.5c0.191-0.374,0.412-0.635,0.664-0.783c0.25-0.148,0.6-0.222,1.048-0.222
		c0.427,0,0.763,0.113,1.008,0.338s0.368,0.541,0.368,0.947C35.678,26.231,35.569,26.986,35.35,28.046z"/>
	<path fill="#1A1A1A" d="M49.985,35.668c-1.137,0.67-2.275,1.006-3.416,1.006c-0.641,0-1.107-0.132-1.4-0.396
		c-0.294-0.264-0.44-0.682-0.44-1.252c0-0.319,0.056-0.805,0.168-1.459c0.112-0.653,0.265-1.381,0.456-2.184
		c0.139,0.012,0.33,0.028,0.576,0.05c0.683,0.077,1.179,0.115,1.488,0.115c2.059,0,3.675-0.384,4.848-1.153
		c1.174-0.77,1.76-1.824,1.76-3.165c0-1.055-0.421-1.915-1.264-2.58c-0.843-0.665-1.957-0.997-3.344-0.997
		c-1.184,0-2.35,0.253-3.496,0.758c-1.146,0.506-2.179,1.22-3.096,2.143c-0.822,0.835-1.459,1.755-1.912,2.76
		s-0.681,2.008-0.681,3.008c0,1.571,0.563,2.854,1.688,3.848c1.125,0.994,2.605,1.492,4.44,1.492c1.354,0,2.63-0.36,3.823-1.08
		c1.194-0.72,2.357-1.827,3.488-3.321l-0.561-0.461C52.163,34.043,51.121,34.999,49.985,35.668z M47.137,25.607
		c0.452-0.764,1.025-1.146,1.72-1.146c0.597,0,1.042,0.148,1.335,0.445c0.294,0.296,0.44,0.753,0.44,1.368
		c0,1.428-0.333,2.519-0.999,3.271c-0.668,0.752-1.635,1.129-2.904,1.129c-0.16,0-0.383-0.017-0.665-0.049
		c-0.282-0.034-0.466-0.05-0.552-0.05C46.141,28.027,46.682,26.371,47.137,25.607z"/>
	<path fill="#1A1A1A" d="M100.105,18.748c0.395-0.22,0.689-0.543,0.887-0.818c0.197-0.274,0.297-0.609,0.297-0.928
		c0-0.417-0.146-0.804-0.44-1.123c-0.294-0.318-0.627-0.487-1-0.487c-0.319,0-0.624,0.075-0.912,0.234s-0.629,0.587-1.023,0.982
		l-5.28,5.523h1.776L100.105,18.748z"/>
	<path fill="#1A1A1A" d="M107.241,26.109l-0.369-0.006c-2.467-0.067-4.745,4.871-5.326,6.197h-0.001
		c-0.513,0.884-1.011,2.112-1.496,2.723c-0.486,0.609-0.937,0.928-1.353,0.928c-0.139,0-0.245-0.045-0.319-0.149
		c-0.075-0.104-0.112-0.263-0.112-0.482c0-0.121,0.011-0.256,0.032-0.41c0.021-0.154,0.054-0.156,0.096-0.332l2.561-10.236H97.32
		l-0.592,2.063c-0.128-0.824-0.482-1.542-1.063-1.993c-0.582-0.451-1.331-0.717-2.249-0.717c-1.845,0-3.557,0.884-5.136,2.691
		c-1.578,1.807-2.368,3.783-2.368,5.948c0,0.308,0.022,0.598,0.056,0.885c-0.373,0.845-0.78,1.552-1.226,2.107
		c-0.528,0.659-0.99,0.987-1.384,0.987c-0.182,0-0.315-0.055-0.4-0.165c-0.085-0.109-0.127-0.281-0.127-0.511
		c0.01-0.165,0.033-0.36,0.071-0.585c0.037-0.225,0.104-0.541,0.2-0.948l4.384-19.266c-0.971,0.11-1.977,0.132-3.016,0.192
		c-1.04,0.061-2.121,0.027-3.24,0.027h-0.836v0.884h2.58l-2.24,9.979c-0.16-0.747-0.507-1.275-1.04-1.677
		c-0.533-0.401-1.211-0.579-2.032-0.579c-0.96,0-1.931,0.275-2.912,0.802c-0.981,0.528-1.855,1.27-2.624,2.215
		c-0.693,0.846-1.237,1.782-1.633,2.804c-0.394,1.021-0.591,1.99-0.591,2.902c0,0.214,0.01,0.423,0.026,0.626
		c-0.351,0.831-0.75,1.536-1.205,2.102c-0.543,0.675-1.002,1.014-1.376,1.014c-0.191,0-0.327-0.044-0.408-0.131
		c-0.08-0.087-0.119-0.252-0.119-0.495c0-0.121,0.002-0.211,0.008-0.272c0.005-0.06,0.013-0.107,0.023-0.14l1.872-7.812
		c0.043-0.165,0.075-0.332,0.097-0.503c0.021-0.17,0.031-0.359,0.031-0.568c0-0.791-0.274-1.415-0.824-1.871
		c-0.549-0.456-1.304-0.684-2.264-0.684c-1.014,0-1.979,0.327-2.896,0.98c-0.918,0.654-1.861,1.689-2.832,3.107l0.976-4.087
		c-1.205,0.144-2.37,0.253-3.496,0.33s-2.216-0.007-3.272,0.003l-0.016,0.796h2.24l-2.688,12.38h4.319l1.504-6.796
		C59.88,29.181,60.54,28,61.58,26.797s1.879-1.798,2.52-1.798c0.214,0,0.376,0.056,0.488,0.16c0.111,0.105,0.168,0.269,0.168,0.488
		c0,0.121-0.017,0.289-0.048,0.504c-0.032,0.214-0.08,0.47-0.145,0.766l-1.552,6.411c-0.085,0.362-0.154,0.723-0.208,1.08
		c-0.054,0.357-0.08,0.651-0.08,0.882c0,0.659,0.237,1.185,0.712,1.574s1.123,0.585,1.944,0.585c1.279,0,2.37-0.385,3.271-1.154
		c0.582-0.496,1.088-1.159,1.521-1.984c0.213,0.704,0.549,1.329,1.019,1.868c0.857,0.99,1.965,1.484,3.319,1.484
		c0.938,0,1.798-0.275,2.576-0.824s1.494-1.379,2.145-2.488c0,0.066-0.006,0.154-0.017,0.263c-0.011,0.11-0.016,0.192-0.016,0.247
		c0,0.935,0.216,1.634,0.647,2.102c0.433,0.467,1.08,0.701,1.944,0.701c1.12,0,2.115-0.398,2.984-1.195
		c0.566-0.518,1.053-1.187,1.463-2.003c0.213,0.635,0.531,1.202,0.955,1.698c0.854,1,1.936,1.5,3.248,1.5
		c0.949,0,1.798-0.289,2.544-0.866c0.747-0.577,1.414-1.458,2.001-2.645c0,0.056-0.006,0.135-0.017,0.239
		c-0.01,0.104-0.017,0.178-0.017,0.222c0,0.912,0.216,1.618,0.648,2.118s1.037,0.75,1.816,0.75c0.96,0,1.736-0.412,2.563-1.236
		c0.538-0.536,1.989-3.041,2.194-3.576l0.01-0.009c0.821-1.798,1.591-3.039,2.254-3.893c0,0.009,0.004,0.019,0.004,0.028
		c0,0.747,0.263,1.378,0.781,1.895c0.517,0.517,1.135,0.775,1.85,0.775c0.725,0,1.339-0.261,1.84-0.783
		c0.502-0.522,0.753-1.151,0.753-1.887c0-0.736-0.255-1.371-0.768-1.904C108.428,26.404,107.874,26.15,107.241,26.109z M78.67,33.93
		c-1.078,1.852-2.225,2.777-3.44,2.777c-0.395,0-0.694-0.099-0.896-0.297c-0.202-0.198-0.304-0.489-0.304-0.873
		c0-0.517,0.136-1.483,0.407-2.901c0.272-1.417,0.627-2.84,1.064-4.269c0.459-1.538,0.875-2.568,1.248-3.09
		c0.373-0.521,0.832-0.783,1.376-0.783c0.683,0,1.213,0.289,1.592,0.865s0.568,1.393,0.568,2.447
		C80.286,30.038,79.747,32.079,78.67,33.93z M95.665,30.27c-0.272,1.114-0.638,2.184-1.097,3.209
		c-0.448,0.994-0.965,1.771-1.552,2.334c-0.587,0.563-1.174,0.844-1.76,0.844c-0.395,0-0.707-0.133-0.937-0.397
		s-0.344-0.628-0.344-1.092c0-0.518,0.141-1.442,0.424-2.772c0.283-1.329,0.653-2.733,1.112-4.211
		c0.416-1.301,0.824-2.215,1.224-2.738c0.4-0.524,0.867-0.787,1.4-0.787c0.64,0,1.123,0.232,1.448,0.695s0.488,1.147,0.488,2.052
		C96.073,28.201,95.936,29.156,95.665,30.27z"/>
	<path fill="#1A1A1A" d="M131.711,35.051c-0.486,0.61-0.937,0.915-1.353,0.915c-0.139,0-0.246-0.052-0.32-0.156
		c-0.075-0.104-0.112-0.267-0.112-0.486c0-0.121,0.011-0.258,0.033-0.412c0.021-0.154,0.053-0.157,0.096-0.332l2.56-10.237h-3.632
		l-0.593,2.063c-0.128-0.824-0.482-1.542-1.063-1.993c-0.582-0.451-1.331-0.717-2.248-0.717c-1.846,0-3.558,0.884-5.137,2.691
		c-1.578,1.807-2.367,3.783-2.367,5.948c0,0.443,0.038,0.857,0.107,1.256c-0.287,0.571-0.585,1.057-0.895,1.439
		c-0.507,0.626-0.989,0.938-1.447,0.938c-0.161,0-0.294-0.061-0.4-0.182c-0.106-0.121-0.16-0.286-0.16-0.495
		c0-0.121,0.011-0.258,0.032-0.413c0.021-0.153,0.059-0.346,0.111-0.577l4.385-19.463c-1.152,0.121-2.219,0.146-3.2,0.201
		s-1.914,0.019-2.8,0.019h-0.638v0.884h2.045l-3.824,17.132c-0.063,0.297-0.114,0.617-0.151,0.869
		c-0.038,0.253-0.057,0.496-0.057,0.683c0,0.867,0.268,1.563,0.801,2.063c0.533,0.5,1.253,0.756,2.16,0.756
		c1.162,0,2.181-0.387,3.056-1.167c0.465-0.414,0.892-0.946,1.284-1.592c0.209,0.546,0.496,1.042,0.87,1.48
		c0.854,1,1.936,1.5,3.249,1.5c0.949,0,1.797-0.289,2.544-0.865c0.746-0.577,1.413-1.458,2-2.645c0,0.056-0.006,0.135-0.016,0.239
		c-0.012,0.104-0.017,0.178-0.017,0.222c0,0.912,0.216,1.618,0.647,2.118c0.433,0.5,1.037,0.75,1.816,0.75
		c0.96,0,1.854-0.412,2.68-1.236c0.827-0.823,1.539-2.016,2.137-3.576l-0.688-0.313C132.695,33.543,132.197,34.441,131.711,35.051z
		 M127.327,30.27c-0.272,1.114-0.638,2.184-1.096,3.209c-0.448,0.994-0.966,1.771-1.553,2.334c-0.586,0.563-1.173,0.844-1.76,0.844
		c-0.395,0-0.707-0.133-0.936-0.397c-0.23-0.265-0.345-0.628-0.345-1.092c0-0.518,0.142-1.442,0.424-2.772
		c0.282-1.329,0.654-2.733,1.112-4.211c0.416-1.301,0.824-2.215,1.224-2.738c0.4-0.524,0.867-0.787,1.4-0.787
		c0.64,0,1.123,0.232,1.448,0.695s0.488,1.147,0.488,2.052C127.735,28.201,127.598,29.156,127.327,30.27z"/>
	<path fill="#1A1A1A" d="M152.904,24.342h-3.246c0.556-3.537,1.091-5.702,1.608-6.829c0.518-1.126,1.192-1.746,2.024-1.746
		c0.277,0,0.466,0.016,0.568,0.103c0.101,0.088,0.151,0.223,0.151,0.432c0,0.088-0.096,0.311-0.287,0.685
		c-0.192,0.374-0.289,0.738-0.289,1.101c0,0.517,0.174,0.929,0.521,1.243c0.347,0.313,0.813,0.468,1.399,0.468
		c0.545,0,0.981-0.184,1.313-0.552c0.331-0.368,0.496-0.849,0.496-1.442c0-0.835-0.317-1.539-0.952-2.109
		c-0.635-0.571-1.442-0.857-2.424-0.857c-1.824,0-3.456,0.916-4.896,2.52c-1.439,1.604-2.571,3.448-3.393,6.985h-2.896l-0.039-0.014
		c-0.043,0.004-0.082,0.014-0.125,0.014c0,0,1.534,0-0.278,0s-4.667,0.854-5.832,3.296c-0.188,0.369-0.253,0.743-0.253,1.185
		c0,0.017,0.023,0.108,0.023,0.125c-0.005,0.105,0.016,0.257,0.016,0.257h0.021c0.049,0.442,0.293,1.114,0.756,1.576
		c0.517,0.517,1.133,0.729,1.848,0.729c0.725,0,1.339-0.283,1.84-0.805s0.753-1.162,0.753-1.898c0-0.736-0.257-1.376-0.769-1.91
		c-0.496-0.516-1.085-0.702-1.76-0.719c0.826-0.491,1.99-0.953,3.637-0.953h2.804c-0.576,2.21-1.222,5.521-1.936,9.333
		c-1.142,6.076-2.4,9.076-3.776,9.076c-0.267,0-0.453-0.061-0.561-0.144c-0.105-0.082-0.159-0.243-0.159-0.462
		c0-0.088,0.099-0.324,0.296-0.697c0.197-0.374,0.296-0.738,0.296-1.09c0-0.528-0.178-0.949-0.536-1.262
		c-0.357-0.313-0.834-0.47-1.432-0.47c-0.533,0-0.962,0.184-1.288,0.552c-0.326,0.368-0.488,0.848-0.488,1.441
		c0,0.868,0.326,1.579,0.977,2.134c0.65,0.555,1.509,0.832,2.576,0.832c1.461,0,2.858-0.643,4.191-1.929
		c1.334-1.285,2.427-3.059,3.28-5.322c0.513-1.363,1.345-4.812,2.497-10.503l0.319-1.489h3.405V24.342z"/>
	<path fill="#1A1A1A" d="M155.861,31.383c0.138,0.012,0.33,0.028,0.575,0.05c0.683,0.077,1.179,0.115,1.488,0.115
		c2.059,0,3.675-0.384,4.849-1.153c1.173-0.77,1.76-1.824,1.76-3.165c0-1.055-0.422-1.915-1.264-2.58
		c-0.843-0.665-1.958-0.997-3.345-0.997c-1.184,0-2.35,0.253-3.496,0.758c-1.146,0.506-2.179,1.22-3.096,2.143
		c-0.822,0.835-1.459,1.755-1.912,2.76s-0.68,2.008-0.68,3.008c0,1.571,0.562,2.854,1.688,3.848s2.605,1.492,4.44,1.492
		c1.354,0,2.629-0.36,3.823-1.08c1.195-0.72,2.358-1.827,3.488-3.321l-0.56-0.461c-0.949,1.242-1.992,2.198-3.128,2.867
		c-1.137,0.67-2.274,1.006-3.416,1.006c-0.641,0-1.107-0.132-1.4-0.396c-0.293-0.264-0.44-0.682-0.44-1.252
		c0-0.319,0.057-0.805,0.169-1.459C155.516,32.915,155.668,32.186,155.861,31.383z M157.644,25.607
		c0.454-0.764,1.027-1.146,1.721-1.146c0.597,0,1.042,0.148,1.336,0.445c0.293,0.296,0.439,0.753,0.439,1.368
		c0,1.428-0.333,2.519-1,3.271c-0.666,0.752-1.634,1.129-2.903,1.129c-0.16,0-0.382-0.017-0.664-0.049
		c-0.283-0.034-0.467-0.05-0.552-0.05C156.65,28.027,157.191,26.371,157.644,25.607z"/>
	<path fill="#1A1A1A" d="M176.967,24.536c-0.763-0.566-1.746-0.849-2.952-0.849c-2.378,0-4.496,0.871-6.352,2.612
		c-1.856,1.742-2.785,3.717-2.785,5.925c0,1.637,0.526,2.953,1.577,3.947c1.05,0.994,2.455,1.492,4.216,1.492
		c1.397,0,2.643-0.327,3.735-0.981c1.094-0.653,2.078-1.645,2.952-2.975l-0.56-0.445c-0.746,1.11-1.61,1.961-2.592,2.555
		c-0.981,0.593-2.017,0.89-3.104,0.89c-0.565,0-1.008-0.141-1.327-0.42c-0.32-0.28-0.48-0.667-0.48-1.162
		c0-0.747,0.168-1.92,0.504-3.519c0.336-1.598,0.749-3.068,1.24-4.408c0.384-1.043,0.757-1.755,1.12-2.134
		c0.362-0.379,0.826-0.569,1.392-0.569c0.267,0,0.488,0.074,0.664,0.222c0.176,0.148,0.264,0.333,0.264,0.552
		c0,0.154-0.051,0.44-0.151,0.857c-0.102,0.418-0.152,0.774-0.152,1.071c0,0.483,0.173,0.89,0.52,1.22
		c0.348,0.33,0.787,0.495,1.32,0.495c0.651,0,1.163-0.201,1.536-0.602c0.373-0.401,0.561-0.942,0.561-1.623
		C178.112,25.819,177.73,25.102,176.967,24.536z"/>
	<path fill="#1A1A1A" d="M209.636,32.356c-0.512,1.187-1.01,2.085-1.495,2.695c-0.486,0.61-0.937,0.915-1.353,0.915
		c-0.139,0-0.245-0.052-0.319-0.156c-0.075-0.104-0.113-0.267-0.113-0.486c0-0.121,0.011-0.258,0.033-0.412
		c0.021-0.154,0.053-0.157,0.096-0.332l2.56-10.237h-3.632l-0.592,2.063c-0.129-0.824-0.482-1.542-1.064-1.993
		c-0.581-0.451-1.33-0.717-2.248-0.717c-1.845,0-3.558,0.884-5.136,2.691c-1.579,1.807-2.368,3.783-2.368,5.948
		c0,0.392,0.027,0.76,0.08,1.116c-0.302,0.653-0.638,1.214-1.011,1.678c-0.539,0.67-1,1.004-1.384,1.004
		c-0.192,0-0.328-0.042-0.408-0.124c-0.08-0.083-0.119-0.229-0.119-0.438c0-0.153,0.002-0.263,0.008-0.33
		c0.005-0.066,0.013-0.115,0.023-0.148l1.84-7.812c0.043-0.165,0.074-0.332,0.096-0.503c0.022-0.17,0.032-0.359,0.032-0.568
		c0-0.78-0.27-1.395-0.808-1.846c-0.539-0.45-1.288-0.675-2.248-0.675c-0.992,0-1.934,0.308-2.824,0.923
		c-0.891,0.616-1.806,1.599-2.744,2.95l2.88-12.723c-0.928,0.11-1.896,0.132-2.904,0.192s-2.045,0.027-3.112,0.027h-1.085v0.884
		h2.526l-4.721,21.223h4.32l1.504-6.763c0.256-1.165,0.914-2.346,1.976-3.571c1.062-1.225,1.901-1.831,2.52-1.831
		c0.192,0,0.35,0.069,0.473,0.201s0.185,0.315,0.185,0.545c0,0.122-0.024,0.328-0.072,0.619c-0.048,0.292-0.109,0.591-0.185,0.898
		l-1.487,6.081c-0.096,0.407-0.168,0.762-0.216,1.063c-0.049,0.302-0.072,0.552-0.072,0.75c0,0.714,0.237,1.28,0.712,1.697
		c0.475,0.418,1.123,0.626,1.943,0.626c1.27,0,2.353-0.387,3.248-1.162c0.525-0.453,0.987-1.047,1.391-1.773
		c0.214,0.601,0.52,1.142,0.925,1.616c0.853,1,1.936,1.5,3.248,1.5c0.949,0,1.797-0.289,2.544-0.866
		c0.746-0.577,1.413-1.458,2-2.645c0,0.056-0.006,0.135-0.016,0.239c-0.011,0.104-0.017,0.178-0.017,0.222
		c0,0.912,0.216,1.618,0.648,2.118c0.432,0.5,1.037,0.75,1.815,0.75c0.961,0,1.854-0.412,2.681-1.236
		c0.826-0.823,1.538-2.016,2.136-3.576L209.636,32.356z M203.756,30.27c-0.271,1.114-0.637,2.184-1.096,3.209
		c-0.448,0.994-0.966,1.771-1.552,2.334c-0.587,0.563-1.174,0.844-1.761,0.844c-0.395,0-0.706-0.133-0.936-0.397
		s-0.344-0.628-0.344-1.092c0-0.518,0.141-1.442,0.424-2.772c0.282-1.329,0.653-2.733,1.112-4.211
		c0.415-1.301,0.823-2.215,1.224-2.738c0.4-0.524,0.866-0.787,1.4-0.787c0.64,0,1.122,0.232,1.447,0.695s0.488,1.147,0.488,2.052
		C204.165,28.201,204.029,29.156,203.756,30.27z"/>
</g>
</svg>
